<svg xmlns="http://www.w3.org/2000/svg" width="484.013" height="202" viewBox="0 0 484.013 202"><defs><style>.a{fill:#fff;}.b{fill:#004797;}.c{fill:#eb5b25;}.d{fill:#0053a3;}</style></defs><g transform="translate(0)"><rect class="a" width="202" height="484.013" rx="14" transform="translate(484.013 0) rotate(90)"/><g transform="translate(12.092 12.111)"><g transform="translate(0 113.167)"><path class="b" d="M387.831,368.5h7.818l-4.027-26.758Z" transform="translate(-165.683 -328.54)"/><path class="b" d="M478.339,351.035c-2.448,0-3.319,1.261-3.319,5.037v18.381c0,3.777.871,5.037,3.319,5.037a3.112,3.112,0,0,0,2.53-1.185c.63-.784.709-1.416.709-3.852V356.072c0-2.44-.079-3.068-.709-3.857A3.122,3.122,0,0,0,478.339,351.035Z" transform="translate(-169.982 -328.983)"/><path class="b" d="M275.634,378.216c2.131,0,2.919-1.18,2.919-4.72V357.162c0-3.544-.788-4.724-2.919-4.724-2.215,0-3,1.18-3,4.724V373.5C272.631,377.036,273.419,378.216,275.634,378.216Z" transform="translate(-160.002 -329.05)"/><path class="b" d="M154.16,327.879v45.153a19.437,19.437,0,0,0,19.422,19.454H254.7V343.319h12.087V346.7c2.845-2.912,5.45-4.092,9.084-4.092,3.081,0,5.454,1.1,6.872,3.148,1.58,2.2,2.057,4.724,2.057,10.941v14.129c0,6.216-.32,8.5-1.423,10.86-1.264,2.516-4.031,4.013-7.507,4.013-3.791,0-6.48-1.416-9.084-4.881v11.665H594.568a19.437,19.437,0,0,0,19.421-19.454V327.879Zm69.214,57.114H210.734V363.667h-7.665v21.326H190.432V332.506h12.637V353.28h7.665V332.506h12.639Zm22.066,0H233.353V343.319H245.44Zm0-45.371H233.353v-7.116H245.44Zm78.779,24.63H305.177v9.173c0,3.7.871,4.961,3.48,4.961,2.526,0,3.4-1.341,3.4-4.961v-3.461h12.165v1.256c0,5.905-.95,8.893-3.711,11.1-2.689,2.284-6.637,3.385-11.85,3.385-5.3,0-9.246-1.1-11.855-3.385-2.762-2.28-3.712-5.273-3.712-11.1V356.7c0-5.744,1.029-8.656,3.712-10.861,2.609-2.2,6.479-3.228,11.855-3.228q7.937,0,11.85,3.308c2.762,2.361,3.711,5.273,3.711,11.252Zm31.242-9.6c-1.343-.08-1.423-.08-1.974-.08a8.822,8.822,0,0,0-6.795,2.912c-1.344,1.576-1.659,4.688-1.659,8.073v19.437H332.946V343.319h12.087v5.824c3.712-4.957,6.163-6.533,10.427-6.453Zm31.275,30.342-1.264-8.264H375.122l-1.265,8.264H360.819l10.432-52.487H389.5l10.353,52.487Zm51.565,0H426.214V357.407c0-3.781-.788-5.036-3.161-5.036-2.289,0-3.16,1.336-3.16,5.036v27.586H407.806V332.506h12.087v15.064c2.923-3.385,6.005-4.961,9.639-4.961a8.079,8.079,0,0,1,7.03,3.384c1.423,2.285,1.738,4.488,1.738,11.412Zm39.546-12.277c0,4.961-.793,7.476-3.082,9.52-2.53,2.2-6.794,3.465-12.248,3.465-4.9,0-8.69-.865-11.374-2.752-2.923-1.968-4.032-4.724-4.032-10.233V355.595c0-5.508,1.109-8.26,4.032-10.309,2.684-1.807,6.4-2.676,11.374-2.676,5.848,0,10.274,1.34,12.721,3.857,1.9,2.047,2.609,4.488,2.609,9.128Zm31.329-18.065c-1.344-.08-1.423-.08-1.979-.08a8.827,8.827,0,0,0-6.794,2.912c-1.34,1.576-1.66,2.912-1.66,6.3v21.213H486.656V343.319h12.086v5.824c3.717-4.957,6.164-6.533,10.433-6.453Zm30.341,0c-1.344-.08-1.423-.08-1.979-.08a8.828,8.828,0,0,0-6.794,2.912c-1.34,1.576-1.659,4.688-1.659,8.073v19.437H517V343.319h12.087v5.824c3.716-4.957,6.163-6.533,10.432-6.453Zm38.2,18.065c0,4.961-.793,7.476-3.082,9.52-2.531,2.2-6.794,3.465-12.245,3.465-4.9,0-8.689-.865-11.377-2.752-2.924-1.968-4.028-4.724-4.028-10.233V355.595c0-5.508,1.1-8.26,4.028-10.309,2.688-1.807,6.4-2.676,11.377-2.676,5.844,0,10.27,1.34,12.717,3.857,1.9,2.047,2.61,4.488,2.61,9.128Z" transform="translate(-154.16 -327.879)"/><path class="b" d="M316.491,351.115c-2.61,0-3.48,1.26-3.48,4.961v2.2h6.877v-2.2C319.887,352.375,319.016,351.115,316.491,351.115Z" transform="translate(-161.993 -328.987)"/><path class="b" d="M583.394,351.035c-2.451,0-3.318,1.261-3.318,5.037v18.381c0,3.777.867,5.037,3.318,5.037a3.1,3.1,0,0,0,2.526-1.185c.635-.784.714-1.416.714-3.852V356.072c0-2.44-.079-3.068-.714-3.857A3.113,3.113,0,0,0,583.394,351.035Z" transform="translate(-175.163 -328.983)"/></g><path class="c" d="M205.154,264.553h9.221l-4.455-24Z" transform="translate(-156.675 -210.546)"/><path class="c" d="M396.4,243.7H384.178a3.875,3.875,0,0,0-3.865,3.839v13.342a3.843,3.843,0,0,0,3.865,3.825H396.4a3.842,3.842,0,0,0,3.853-3.825V247.536A3.874,3.874,0,0,0,396.4,243.7Z" transform="translate(-165.312 -210.696)"/><path class="c" d="M613.988,228.5a19.438,19.438,0,0,0-19.421-19.455H173.582A19.438,19.438,0,0,0,154.16,228.5v81.565H351.751l-38.21-47.706-2.3,3.982v15.083H293.989v-57.5H311.24V243.84l16.15-19.917h22.58l-20.762,28.832L375.6,310.063H613.988ZM215.846,281.383l-2.29-6.024H201.215l-1.9,6.024H179.534l19.414-58.112h17.874l17.97,58.112Zm66.758.2H246.014V223.923h17.933v37.722H282.6ZM405.832,270.24a11.559,11.559,0,0,1-11.55,11.535h-30.6a11.5,11.5,0,0,1-11.508-11.535V235.807a11.49,11.49,0,0,1,11.508-11.538h30.6a11.548,11.548,0,0,1,11.55,11.538Zm67.435-30.558H455.98s-.565-4.306-3.984-4.306c-3.067,0-6.188-.119-10.643-.119-4.214,0-5.42,2.02-5.42,5.105,0,3.012.734,5.108,3.447,5.108H461.9c5.512,0,11.018,3.382,11.018,11.636,0,4.4.026,4.4.026,10.869,0,8.727-5.279,13.12-14.248,13.12-4.4,0-21.337.363-27.45.363s-12.217-4.857-12.217-9.839v-5.785h16.949s.318,4.487,4.338,4.487h10.837c5.166,0,6.182-3.464,6.182-6.871,0-3.385-2.982-5.074-5.744-5.074H430.9c-6.531,0-11.874-5.52-11.874-9.832V235.267c0-5.756,4.088-10.853,13.57-10.853h29.785C474.478,224.414,473.267,239.681,473.267,239.681Zm63.706,2.069H517.645v39.9H500.193v-39.9H481.542V224.086h55.432Zm60.64,28.489A11.525,11.525,0,0,1,586.1,281.775H555.486A11.531,11.531,0,0,1,543.94,270.24V235.807a11.52,11.52,0,0,1,11.546-11.538H586.1a11.515,11.515,0,0,1,11.508,11.538Z" transform="translate(-154.16 -209.043)"/><path class="c" d="M598.187,243.7H585.932a3.844,3.844,0,0,0-3.859,3.839v13.342a3.812,3.812,0,0,0,3.859,3.825h12.255A3.81,3.81,0,0,0,602,260.877V247.536A3.842,3.842,0,0,0,598.187,243.7Z" transform="translate(-175.262 -210.696)"/><g transform="translate(13.379 14.228)"><path class="d" d="M368.408,226.732c-.174.1-.363.178-.531.289C368.045,226.91,368.234,226.834,368.408,226.732Z" transform="translate(-178.078 -224.115)"/><path class="d" d="M369.926,225.941c.173-.071.364-.1.542-.168C370.29,225.836,370.1,225.869,369.926,225.941Z" transform="translate(-178.179 -224.069)"/><path class="d" d="M415.323,228.579c.144.143.252.317.387.468C415.575,228.9,415.466,228.722,415.323,228.579Z" transform="translate(-180.418 -224.203)"/><path class="d" d="M396.4,264.7a3.842,3.842,0,0,0,3.853-3.825V247.536A3.874,3.874,0,0,0,396.4,243.7H384.178a3.875,3.875,0,0,0-3.865,3.839v5.316h2.876a3.868,3.868,0,0,1,3.843,3.876V264.7Z" transform="translate(-178.691 -224.924)"/><path class="d" d="M406.786,225.032h-.048a11.508,11.508,0,0,1,8.026,3.264A11.429,11.429,0,0,0,406.786,225.032Z" transform="translate(-179.995 -224.034)"/><path class="b" d="M403.918,282.666h-30.6a11.5,11.5,0,0,1-11.508-11.535V236.7a11.466,11.466,0,0,1,4.333-8.973c-.28.221-.579.416-.839.662l-10.461,8.435a11.643,11.643,0,0,0-5.271,9.739V266.9L370.3,292.5H391.76a11.342,11.342,0,0,0,8.483-3.768l9.3-7.5c.152-.085.268-.218.415-.31A11.443,11.443,0,0,1,403.918,282.666Z" transform="translate(-177.175 -224.162)"/><path class="d" d="M214.374,264.553l-4.455-24-4.765,24Z" transform="translate(-170.054 -224.774)"/><path class="d" d="M319.388,244.577l16.151-19.918h.178l-.184-.184-16.145,13.951Z" transform="translate(-175.687 -224.007)"/><path class="b" d="M314.235,263.069l-2.3,3.982v15.083H294.683V224.676l-12.912,9.444v28.238H283.3V282.3H246.708V224.636l-12.489,9.5V278l1.267,4.1H216.541l-2.29-6.025H201.909l-1.9,6.025H180.228l19.414-58.112-12,9.7-19.412,58.157h19.811l6.359-6.082h7.867l2.28,6.082h18.939l10.729-8.829v8.829h36.613l10.939-8.337v8.138h17.264l11.427-8.121,21.18,27.258h20.8Z" transform="translate(-168.233 -223.984)"/><path class="d" d="M576.184,225.032a11.568,11.568,0,0,0-2.3.231A11.659,11.659,0,0,1,576.184,225.032Z" transform="translate(-188.237 -224.034)"/><path class="d" d="M571.645,225.941c.357-.148.744-.234,1.12-.347C572.389,225.707,572,225.792,571.645,225.941Z" transform="translate(-188.126 -224.061)"/><path class="d" d="M598.187,264.7A3.81,3.81,0,0,0,602,260.877V247.536a3.842,3.842,0,0,0-3.811-3.839H585.932a3.844,3.844,0,0,0-3.859,3.839v5.316h2.868a3.849,3.849,0,0,1,3.821,3.876V264.7Z" transform="translate(-188.641 -224.924)"/><path class="d" d="M481.027,225.479a9.894,9.894,0,0,1,1.214.322A9.906,9.906,0,0,0,481.027,225.479Z" transform="translate(-183.658 -224.055)"/><path class="d" d="M570.249,226.677c-.206.118-.429.21-.626.34C569.82,226.886,570.042,226.8,570.249,226.677Z" transform="translate(-188.027 -224.112)"/><path class="d" d="M478.373,225.184a12.582,12.582,0,0,1,1.984.161A12.592,12.592,0,0,0,478.373,225.184Z" transform="translate(-183.527 -224.041)"/><path class="d" d="M482.832,226.026a8.809,8.809,0,0,1,1.051.508A8.891,8.891,0,0,0,482.832,226.026Z" transform="translate(-183.747 -224.081)"/><path class="d" d="M484.323,226.791a8.786,8.786,0,0,1,1.033.771A8.779,8.779,0,0,0,484.323,226.791Z" transform="translate(-183.82 -224.118)"/><path class="d" d="M374.43,225.032a11.529,11.529,0,0,0-2.28.229A11.657,11.657,0,0,1,374.43,225.032Z" transform="translate(-178.289 -224.034)"/><path class="d" d="M483.656,248.683a10.632,10.632,0,0,0-1.143-.521A10.93,10.93,0,0,1,483.656,248.683Z" transform="translate(-183.731 -225.137)"/><path class="d" d="M488.828,255.231c.1.361.236.692.311,1.081C489.065,255.921,488.932,255.592,488.828,255.231Z" transform="translate(-184.043 -225.474)"/><path class="b" d="M514.809,242.5H496.157V224.84h0l-9.813,6.249a10.623,10.623,0,0,0-2.5-3.486c4.706,4.309,4.034,12.832,4.034,12.832H470.6s-.565-4.306-3.984-4.306c-3.067,0-6.188-.119-10.643-.119-4.214,0-5.42,2.02-5.42,5.105,0,3.012.734,5.108,3.447,5.108h22.522a12.487,12.487,0,0,1,3.821.6c-.168-.055-.327-.137-.5-.188l3.571-2.752V248.4c-.142-.113-.31-.181-.458-.284a9.634,9.634,0,0,1,3.484,4.166c-.038-.082-.051-.189-.09-.269h16.624V291.9l17.445-.019,11.844-9.478H514.809Z" transform="translate(-182.155 -224.025)"/><path class="d" d="M489.109,274.526c-.064.321-.166.608-.247.912C488.944,275.134,489.045,274.847,489.109,274.526Z" transform="translate(-184.044 -226.395)"/><path class="b" d="M604.959,282.675H574.34a11.531,11.531,0,0,1-11.546-11.535V236.708a11.471,11.471,0,0,1,4.032-8.787c-.192.169-.317.3-.5.476l-10.46,8.435-.038.03v5.789H536.5v9.428l7.488-.06,6.584-5.185v34.125a11.527,11.527,0,0,0,11.521,11.548h30.653a11.442,11.442,0,0,0,8.514-3.768l9.284-7.5c.124-.07.219-.133.341-.208A12.065,12.065,0,0,1,604.959,282.675Z" transform="translate(-186.393 -224.172)"/><path class="d" d="M414.629,282.411c.209-.182.441-.33.637-.526C415.071,282.079,414.837,282.231,414.629,282.411Z" transform="translate(-180.384 -226.746)"/><path class="d" d="M620.615,273.313V273.3c0,.01,0,.017,0,.026C620.611,273.324,620.615,273.318,620.615,273.313Z" transform="translate(-190.541 -226.337)"/><path class="d" d="M418.47,276.242c-.069.278-.163.545-.254.813C418.306,276.784,418.4,276.521,418.47,276.242Z" transform="translate(-180.561 -226.477)"/><path class="d" d="M417.38,278.982c-.137.256-.26.52-.415.764C417.122,279.5,417.244,279.24,417.38,278.982Z" transform="translate(-180.499 -226.607)"/><path class="b" d="M471.807,281.963c-4.4,0-21.337.363-27.45.363s-12.217-4.857-12.217-9.839V266.7h16.949s.318,4.487,4.338,4.487h10.837c5.166,0,6.182-3.464,6.182-6.871,0-3.385-2.982-5.074-5.744-5.074H444.013c-6.531,0-11.874-5.52-11.874-9.832V236.137a9.9,9.9,0,0,1,5.009-8.865A10.952,10.952,0,0,0,435,228.834l-10.7,8.345c-.379.27-.711.562-1.029.812A10.115,10.115,0,0,0,420,245.677V258.9c0,3.747,3.954,8.352,9.3,9.561l-9.3,7.85V282c0,4.947,6.1,9.839,12.213,9.839,6.078,0,23.036-.354,27.432-.354a20.254,20.254,0,0,0,7.391-1.234l.292-.256a10.339,10.339,0,0,0,3.91-2.937l9.066-6.976A17.394,17.394,0,0,1,471.807,281.963Z" transform="translate(-180.648 -224.141)"/><path class="d" d="M418.886,273.313V273.3c0,.01,0,.017,0,.027Z" transform="translate(-180.593 -226.337)"/><path class="d" d="M485.883,280.817c.166-.164.305-.35.459-.525C486.189,280.466,486.049,280.653,485.883,280.817Z" transform="translate(-183.897 -226.67)"/><path class="d" d="M442.424,225.681c.332-.071.626-.174.978-.229C443.049,225.507,442.757,225.609,442.424,225.681Z" transform="translate(-181.754 -224.054)"/><path class="d" d="M488.083,277.633c-.131.283-.277.553-.428.818C487.807,278.186,487.951,277.916,488.083,277.633Z" transform="translate(-183.985 -226.543)"/><path class="d" d="M439.058,226.766a12.743,12.743,0,0,1,1.323-.583A12.965,12.965,0,0,0,439.058,226.766Z" transform="translate(-181.588 -224.089)"/></g></g></g></svg>